<svg width="671" height="179" viewBox="0 0 671 179" fill="none" xmlns="http://www.w3.org/2000/svg">
<path d="M104.158 69.1393C100.441 61.0939 96.511 53.1225 92.6794 45.1067C91.5005 42.6516 90.3543 40.1818 89.1917 37.7268H86.4571C86.6209 38.7473 86.7519 39.7677 86.9484 40.7882C87.5542 44.0123 88.1601 47.2511 88.8151 50.4752C89.4864 53.7584 90.2233 57.0416 90.8946 60.3249C91.4513 63.0757 91.9098 65.856 92.4666 68.6069C93.187 72.1563 94.3987 75.6761 94.5789 79.2404C94.8081 83.7215 94.4479 88.2618 93.9566 92.7282C93.3671 97.934 90.9274 102.607 88.1764 107.163C84.3776 113.463 80.6769 119.807 76.9763 126.137C73.5213 132.038 70.0827 137.954 66.6768 143.87C62.9598 150.318 59.3083 156.795 55.5749 163.229C53.0533 167.577 50.417 171.881 47.8789 176.229C47.5842 176.731 47.5514 177.367 47.3877 177.974C51.2521 178.432 51.7269 178.21 53.3644 175.445C53.6755 174.927 54.003 174.424 54.3468 173.936C56.7375 170.668 59.1773 167.414 61.5025 164.116C64.4335 159.975 67.2826 155.775 70.1973 151.604C73.5704 146.798 76.9763 141.991 80.3986 137.214C83.8372 132.408 87.3577 127.631 90.7636 122.795C93.7274 118.595 96.7239 114.395 99.4584 110.076C103.028 104.456 105.582 98.4369 107.597 92.2106V78.3974C106.467 75.2916 105.566 72.0971 104.174 69.0949L104.158 69.1393Z" fill="#A5BFE2"/>
<path d="M61.2568 124.658C65.2521 121.405 69.3949 118.284 73.161 114.823C77.6312 110.727 81.9868 106.497 85.9822 102.016C89.7483 97.7862 92.008 92.8761 91.5495 87.2414C91.3366 84.6828 91.222 82.1095 90.7144 79.6101C90.2068 77.1255 89.6337 74.5669 88.4711 72.2746C85.4255 66.2554 82.0523 60.3692 78.8102 54.4239C76.9926 51.0815 75.1587 47.7392 73.3739 44.382C72.2604 42.3115 70.7703 41.4537 69.0346 41.9713C69.313 43.1545 69.4931 44.3672 69.9025 45.5208C70.7703 47.961 71.851 50.3421 72.7025 52.7823C74.5528 58.0769 76.3704 63.3715 78.1061 68.6808C79.2523 72.1563 80.7096 75.6318 81.1845 79.1812C81.6593 82.7898 82.0523 86.6054 80.4968 90.1549C79.3342 92.8022 78.3517 95.6269 76.5341 97.8749C73.7014 101.38 70.2791 104.53 67.0042 107.739C59.9304 114.661 52.7748 121.508 45.6847 128.4C38.0051 135.869 30.3582 143.367 22.6622 150.835C20.2224 153.216 17.6844 155.509 15.2118 157.86C14.7206 158.334 14.3931 158.94 14.0001 159.472C14.1311 159.694 14.2457 159.916 14.3767 160.138C15.8668 159.827 17.7007 159.916 18.7651 159.147C22.5476 156.411 26.1008 153.394 29.7032 150.451C34.2717 146.709 38.8074 142.953 43.3595 139.196C45.6192 137.333 47.8461 135.469 50.1222 133.621C53.8228 130.618 57.5725 127.661 61.2732 124.644L61.2568 124.658Z" fill="#A5BFE2"/>
<path d="M35.6308 123.091C39.9537 120.34 44.342 117.663 48.6812 114.912C53.4462 111.895 58.2275 108.878 62.9106 105.758C66.3001 103.51 69.8207 101.336 72.7844 98.6588C75.5681 96.1446 77.6313 92.9649 78.5974 89.4303C79.1377 87.4485 79.7272 85.3336 79.498 83.3667C78.9085 78.3383 76.6161 73.8128 73.6195 69.5387C69.4768 63.6525 65.4978 57.6628 61.5188 51.688C60.258 49.7949 59.0135 48.9963 56.7375 49.3513C57.2451 50.4013 57.6872 51.3035 58.0965 52.2056C61.1586 58.9199 64.1715 65.6491 67.2826 72.3338C69.313 76.7115 70.9341 80.9856 69.8207 85.9844C69.1329 89.0605 67.6429 91.412 65.4978 93.6008C64.3516 94.7692 62.927 95.7305 61.6171 96.7806C59.0135 98.8511 56.4427 100.966 53.7573 102.962C51.0228 105.018 48.1245 106.896 45.39 108.952C40.494 112.605 35.6963 116.376 30.8003 120.029C24.9547 124.407 19.0762 128.725 13.1814 133.044C11.6259 134.183 9.95567 135.218 8.41647 136.372C5.71468 138.412 3.04565 140.513 0 142.879C2.21055 143.145 3.7825 143.411 5.30532 142.317C6.97552 141.104 8.72758 140.01 10.496 138.915C13.3779 137.141 16.3253 135.44 19.1745 133.635C24.6763 130.145 30.129 126.581 35.6144 123.091H35.6308Z" fill="#A5BFE2"/>
<path d="M170.189 176.476H107V37.9925H140.681V158.698H170.189V176.461V176.476Z" fill="black"/>
<path d="M266.415 176.476H233.04L227.354 139.291H212.407L206.656 176.476H173.282L198.474 37.9925H241.175L266.415 176.476ZM224.648 120.073L219.8 78.7416L215.209 120.073H224.648Z" fill="black"/>
<path d="M271.553 176.476V37.9925H311.226C320.697 37.9925 328.944 39.9419 335.918 43.8408C342.909 47.7397 346.388 53.9663 346.388 62.5205V81.7385C346.388 91.4566 339.832 98.3233 326.721 102.31C340.541 105.394 347.467 112.057 347.467 122.299V149.14C347.467 158.276 344.165 165.128 337.577 169.667C330.989 174.206 323.129 176.476 313.996 176.476H271.553ZM314.64 86.6412V63.0152C314.64 58.1706 311.499 55.7557 305.234 55.7557V94.0026C311.499 94.0026 314.64 91.5439 314.64 86.6412ZM314.64 151.366V116.319C314.64 111.489 311.499 109.074 305.234 109.074V158.712C311.499 158.712 314.64 156.268 314.64 151.38V151.366Z" fill="black"/>
<path d="M381.776 176.475H353.975V156.297H381.776V176.475Z" fill="black"/>
<path d="M462.071 86.3794H431.499V58.9563C431.499 56.7013 429.953 55.5811 426.844 55.5811C423.736 55.5811 421.98 56.7013 421.98 58.9563V155.046C421.98 157.301 423.607 158.421 426.844 158.421C430.082 158.421 431.499 157.301 431.499 155.046V120.858H462.071V156.006C462.071 162.568 458.511 167.834 451.376 171.791C444.24 175.748 436.187 177.727 427.215 177.727C401.266 177.727 388.299 169.42 388.299 152.806V63.6698C388.299 45.703 401.266 36.7268 427.215 36.7268C450.458 36.7268 462.071 44.9028 462.071 61.2549V86.3648V86.3794Z" fill="black"/>
<path d="M469.126 152.806V63.6698C469.126 45.703 482.012 36.7268 507.784 36.7268C533.556 36.7268 545.894 45.6448 545.894 63.4807V152.617C545.894 160.662 542.35 166.859 535.263 171.209C528.176 175.559 518.946 177.727 507.558 177.727C481.931 177.727 469.126 169.42 469.126 152.806ZM513.067 154.261V59.9164C513.067 57.1523 511.247 55.7702 507.623 55.7702C503.999 55.7702 501.953 57.1523 501.953 59.9164V154.261C501.953 157.025 503.837 158.407 507.623 158.407C511.408 158.407 513.067 157.025 513.067 154.261Z" fill="black"/>
<path d="M670.356 176.476H640.315V98.7452L622.775 176.476H599.58L579.478 98.7452V176.476H553.175V37.9925H596.471L611.87 109.845L625.239 37.9925H670.356V176.476Z" fill="black"/>
<path d="M107.016 4.41391H116.276V6.08364H115.054C113.43 6.0546 113.173 6.24335 113.205 7.41942V14.4178C113.205 15.6519 113.43 16.1891 114.057 16.6102C114.732 17.0748 115.777 17.3362 116.919 17.3362C118.06 17.3362 119.201 17.0458 119.957 16.5521C120.616 16.1311 120.857 15.5358 120.857 14.4178V7.41942C120.889 6.22883 120.632 6.0546 119.008 6.08364H117.915V4.41391H126.178V6.08364H125.326C123.703 6.0546 123.445 6.24335 123.478 7.41942V14.4178C123.478 15.9713 122.947 17.249 121.918 18.0331C120.745 18.9623 118.832 19.485 116.597 19.485C114.588 19.485 112.9 19.064 111.614 18.2364C110.344 17.4233 109.797 16.2617 109.797 14.4178V7.41942C109.829 6.22883 109.572 6.0546 107.932 6.08364H107V4.41391H107.016Z" fill="#9D9D9D"/>
<path d="M141.788 19.0639L132.737 7.1435V16.0584C132.737 17.249 132.962 17.4232 134.554 17.3942H135.824V19.0639H127.046V17.3942H128.332C129.956 17.4232 130.197 17.2345 130.181 16.0584V7.43389C130.197 6.2433 129.956 6.06907 128.332 6.09811H127.143V4.42838H134.698L142.768 15.0566V7.43389C142.8 6.2433 142.543 6.06907 140.92 6.09811H139.634V4.42838H148.073V6.09811H147.173C145.549 6.06907 145.308 6.25782 145.324 7.43389V19.0639H141.772H141.788Z" fill="#9D9D9D"/>
<path d="M149.263 17.3942H150.485C152.108 17.4232 152.349 17.2345 152.333 16.0584V7.43389C152.349 6.2433 152.108 6.06907 150.485 6.09811H149.263V4.42838H158.86V6.09811H157.638C155.982 6.06907 155.741 6.25782 155.774 7.43389V16.0584C155.741 17.249 155.999 17.4232 157.638 17.3942H158.86V19.0639H149.263V17.3942Z" fill="#9D9D9D"/>
<path d="M162.782 7.46298C162.365 6.43211 161.882 6.09816 160.741 6.08364H159.969V4.41391H169.309V6.08364H167.927C166.914 6.08364 166.544 6.25787 166.544 6.73701C166.544 6.98384 166.673 7.37587 166.834 7.81145L170.145 15.4051L173.666 7.63722C173.794 7.34683 173.939 6.85317 173.939 6.6499C173.939 6.21431 173.569 6.08364 172.267 6.08364H171.094V4.41391H179.581V6.08364H179.051C177.636 6.1272 177.299 6.33047 176.768 7.50654L171.495 19.0495H167.83L162.831 7.46298H162.782Z" fill="#9D9D9D"/>
<path d="M180.691 17.3942H181.784C183.44 17.4233 183.681 17.2345 183.649 16.0294V7.44846C183.665 6.24335 183.423 6.06912 181.784 6.08364H180.691V4.41391H198.213V10.2362H196.171C196.027 6.80961 195.159 6.04008 191.461 6.08364H187.057V10.5847H188.069C190.497 10.5411 190.722 10.3233 190.979 7.9276H193.069V15.2454H190.979C190.754 12.6174 190.4 12.2399 188.118 12.2544H187.041V17.3942H191.831C195.014 17.4233 195.786 16.5812 196.155 12.8497H198.197V19.064H180.675V17.3942H180.691Z" fill="#9D9D9D"/>
<path d="M210.286 19.064H200.737V17.3942H201.83C203.486 17.4233 203.727 17.2345 203.695 16.0585V7.44846C203.711 6.24335 203.47 6.06912 201.83 6.08364H200.737V4.41391H211.379C213.79 4.41391 215.237 4.67526 216.411 5.31411C217.391 5.86585 217.97 6.82413 217.97 7.94212C217.97 9.13271 217.359 10.12 216.218 10.7589C215.398 11.2235 214.61 11.4123 212.858 11.6591C215.51 12.0075 216.378 12.7771 216.427 14.7953L216.523 16.0875C216.587 17.0603 216.764 17.3216 217.327 17.3216C218.002 17.3216 218.099 17.0167 218.147 14.8824H219.819C219.835 15.0566 219.835 15.2599 219.835 15.2744C219.835 16.9441 219.642 17.8008 219.127 18.4106C218.549 19.093 217.52 19.4705 216.17 19.4705C214.048 19.4705 212.81 18.4977 212.745 16.7989L212.665 15.0857C212.536 12.7771 211.668 12.1673 208.389 12.1673H207.071V16.0585C207.039 17.2491 207.296 17.4233 208.919 17.3942H210.254V19.064H210.286ZM210.398 10.4975C213.196 10.4975 214.417 9.84416 214.417 8.30511C214.417 7.43394 213.951 6.72249 213.179 6.4321C212.52 6.17076 211.813 6.08364 210.334 6.08364H207.103V10.4975H210.414H210.398Z" fill="#9D9D9D"/>
<path d="M221.941 13.0239H224.014C224.481 14.8243 224.963 15.5938 226.104 16.3633C227.246 17.1764 228.483 17.5104 230.284 17.5104C232.599 17.5104 233.933 16.828 233.933 15.6229C233.933 14.5049 233.033 13.9096 230.605 13.4449L227.712 12.8932C223.58 12.1092 221.876 10.8315 221.876 8.50835C221.876 5.80775 224.449 3.9783 228.275 3.9783C230.284 3.9783 231.345 4.28321 233.483 5.48832L234.431 4.41388H236.007V9.97481H233.997C233.612 8.47931 232.952 7.49199 231.924 6.76602C231.023 6.15621 229.561 5.74967 228.226 5.74967C226.056 5.74967 224.754 6.4466 224.754 7.63719C224.754 8.20344 225.124 8.6971 225.767 9.01653C226.104 9.19076 226.731 9.365 227.68 9.53923L231.248 10.2216C232.711 10.483 234.158 10.9912 235.091 11.5574C236.232 12.2544 236.939 13.4885 236.939 14.8098C236.939 17.5394 234.142 19.4705 230.252 19.4705C228.178 19.4705 226.699 19.0349 224.368 17.6991L223.757 19.0639H221.941V13.0239Z" fill="#9D9D9D"/>
<path d="M238.643 17.3942H239.865C241.489 17.4232 241.73 17.2345 241.714 16.0584V7.43389C241.73 6.2433 241.489 6.06907 239.865 6.09811H238.643V4.42838H248.24V6.09811H247.019C245.363 6.06907 245.122 6.25782 245.154 7.43389V16.0584C245.122 17.249 245.379 17.4232 247.019 17.3942H248.24V19.0639H238.643V17.3942Z" fill="#9D9D9D"/>
<path d="M249.591 17.3942H250.716C252.388 17.4232 252.629 17.2345 252.613 16.0584V7.43389C252.629 6.2433 252.388 6.06907 250.716 6.0981H249.591V4.42838H259.638C265.891 4.42838 269.171 6.92571 269.171 11.7607C269.171 16.5956 265.891 19.0784 259.638 19.0784H249.591V17.4087V17.3942ZM258.352 17.3942C261.31 17.3942 262.628 17.1038 263.657 16.2326C264.75 15.2889 265.377 13.6627 265.377 11.7607C265.377 9.85863 264.75 8.20342 263.657 7.25966C262.628 6.38849 261.326 6.0981 258.352 6.0981H256.021V17.4087H258.352V17.3942Z" fill="#9D9D9D"/>
<path d="M269.364 17.3942H269.926C271.309 17.3942 271.871 17.0603 272.289 15.9859L277.241 4.41391H281.002L286.307 15.9859C286.838 17.22 287.111 17.3942 288.445 17.3942H288.976V19.064H279.781V17.3942H281.211C282.385 17.3942 282.69 17.2781 282.69 16.8425C282.69 16.7118 282.594 16.4505 282.449 16.1165L281.694 14.4032H275.81L275.006 16.2182C274.878 16.5521 274.813 16.7699 274.813 16.9006C274.813 17.2926 275.087 17.3797 276.244 17.3797H277.627V19.0495H269.332V17.3797L269.364 17.3942ZM278.688 7.59366L276.566 12.69H280.986L278.671 7.59366H278.688Z" fill="#9D9D9D"/>
<path d="M289.539 17.3942H290.664C292.336 17.4232 292.577 17.2345 292.561 16.0584V7.43389C292.577 6.2433 292.336 6.06907 290.664 6.0981H289.539V4.42838H299.586C305.839 4.42838 309.119 6.92571 309.119 11.7607C309.119 16.5956 305.839 19.0784 299.586 19.0784H289.539V17.4087V17.3942ZM298.284 17.3942C301.242 17.3942 302.56 17.1038 303.589 16.2326C304.682 15.2889 305.309 13.6627 305.309 11.7607C305.309 9.85863 304.682 8.20342 303.589 7.25966C302.56 6.38849 301.258 6.0981 298.284 6.0981H295.953V17.4087H298.284V17.3942Z" fill="#9D9D9D"/>
<path d="M310.292 17.3942H311.385C313.041 17.4233 313.282 17.2345 313.25 16.0294V7.44846C313.282 6.24335 313.025 6.06912 311.385 6.08364H310.292V4.41391H327.815V10.2362H325.773C325.628 6.80961 324.76 6.04008 321.063 6.08364H316.658V10.5847H317.687C320.114 10.5411 320.339 10.3233 320.597 7.9276H322.686V15.2454H320.597C320.372 12.6174 320.018 12.2399 317.735 12.2544H316.658V17.3942H321.449C324.632 17.4233 325.403 16.5812 325.773 12.8497H327.815V19.064H310.292V17.3942Z" fill="#9D9D9D"/>
<path d="M353.214 13.3869C352.893 15.5212 352.507 16.465 351.494 17.4668C350.128 18.8026 348.263 19.4705 345.755 19.4705C340.498 19.4705 336.688 16.2182 336.688 11.7171C336.688 7.21613 340.579 3.99283 345.562 3.99283C347.572 3.99283 348.681 4.29774 350.787 5.50285L351.317 4.18158H353.214V10.1781H351.172C350.835 8.55192 350.497 7.85499 349.694 7.09998C348.777 6.24333 347.427 5.76419 345.932 5.76419C342.556 5.76419 340.482 8.04374 340.482 11.8043C340.482 13.6337 340.948 14.984 341.865 15.9278C342.813 16.9151 344.324 17.4668 345.98 17.4668C347.363 17.4668 348.536 17.0893 349.404 16.3488C350.208 15.6664 350.578 14.9695 350.964 13.3869H353.23H353.214Z" fill="#9D9D9D"/>
<path d="M353.954 17.3942H354.516C355.899 17.3942 356.461 17.0603 356.879 15.9859L361.831 4.41391H365.592L370.897 15.9859C371.428 17.22 371.701 17.3942 373.035 17.3942H373.566V19.064H364.371V17.3942H365.801C366.975 17.3942 367.28 17.2781 367.28 16.8425C367.28 16.7118 367.184 16.4505 367.039 16.1165L366.284 14.4032H360.4L359.596 16.2182C359.468 16.5521 359.403 16.7699 359.403 16.9006C359.403 17.2926 359.677 17.3797 360.834 17.3797H362.216V19.0495H353.921V17.3797L353.954 17.3942ZM363.261 7.59366L361.139 12.69H365.56L363.245 7.59366H363.261Z" fill="#9D9D9D"/>
<path d="M379.851 6.04008C376.524 5.99652 375.302 7.14356 375.205 10.4685H373.164V4.41391H389.931V10.4685H387.889C387.793 7.15807 386.571 5.99652 383.243 6.04008V16.0585C383.227 17.2491 383.468 17.4233 385.092 17.3942H386.7V19.064H376.395V17.3942H378.003C379.626 17.4233 379.883 17.2345 379.851 16.0585V6.04008Z" fill="#9D9D9D"/>
<path d="M411.231 11.7171C411.231 16.3488 407.293 19.4705 401.457 19.4705C398.596 19.4705 396.281 18.8171 394.512 17.4523C392.535 15.9859 391.619 14.0983 391.619 11.6155C391.619 9.39405 392.664 7.36133 394.512 6.01103C396.361 4.64621 398.596 3.99283 401.441 3.99283C407.293 3.99283 411.231 7.08546 411.231 11.7171ZM395.413 11.63C395.413 13.6337 395.847 14.9259 396.892 16.0149C397.969 17.1329 399.512 17.7282 401.441 17.7282C403.37 17.7282 404.913 17.1329 405.958 16.0149C406.971 14.9405 407.437 13.6192 407.437 11.7317C407.437 9.84415 406.971 8.46481 405.958 7.43393C404.865 6.2869 403.338 5.72064 401.441 5.72064C397.679 5.72064 395.413 7.94211 395.413 11.63ZM399.287 3.22331L402.615 0.566256C403.145 0.130674 403.467 0 403.885 0C404.495 0 405.01 0.464621 405.01 1.01636C405.01 1.48098 404.624 1.88752 403.965 2.11983L400.605 3.23782H399.287V3.22331Z" fill="#9D9D9D"/>
<path d="M422.371 4.41384V6.08357H421.037C419.413 6.05453 419.172 6.24329 419.188 7.41936V17.3797H422.661C426.455 17.4232 427.307 16.5666 427.355 12.7189H429.364V19.0349H412.806V17.3651H413.899C415.555 17.3942 415.796 17.2054 415.764 16.0294V7.40484C415.796 6.21425 415.539 6.04001 413.899 6.06905H412.806V4.39932H422.355L422.371 4.41384Z" fill="#9D9D9D"/>
<path d="M431.309 17.3942H432.531C434.155 17.4232 434.412 17.2345 434.38 16.0584V7.43389C434.412 6.2433 434.155 6.06907 432.531 6.09811H431.309V4.42838H440.906V6.09811H439.685C438.029 6.06907 437.788 6.25782 437.82 7.43389V16.0584C437.788 17.249 438.045 17.4232 439.685 17.3942H440.906V19.0639H431.309V17.3942Z" fill="#9D9D9D"/>
<path d="M459.072 13.3869C458.75 15.5212 458.365 16.465 457.352 17.4668C455.985 18.8026 454.121 19.4705 451.613 19.4705C446.356 19.4705 442.546 16.2182 442.546 11.7171C442.546 7.21613 446.437 3.99283 451.42 3.99283C453.429 3.99283 454.539 4.29774 456.645 5.50285L457.175 4.18158H459.072V10.1781H457.03C456.693 8.55192 456.355 7.85499 455.551 7.09998C454.619 6.24333 453.285 5.76419 451.79 5.76419C448.414 5.76419 446.34 8.04374 446.34 11.8043C446.34 13.6337 446.806 14.984 447.723 15.9278C448.671 16.9151 450.182 17.4668 451.822 17.4668C453.204 17.4668 454.378 17.0893 455.246 16.3488C456.05 15.6664 456.42 14.9695 456.805 13.3869H459.072Z" fill="#9D9D9D"/>
<path d="M459.811 17.3942H460.374C461.757 17.3942 462.319 17.0603 462.737 15.9859L467.689 4.41391H471.45L476.755 15.9859C477.286 17.22 477.559 17.3942 478.893 17.3942H479.424V19.064H470.228V17.3942H471.659C472.833 17.3942 473.138 17.2781 473.138 16.8425C473.138 16.7118 473.042 16.4505 472.897 16.1165L472.141 14.4032H466.258L465.454 16.2182C465.325 16.5521 465.261 16.7699 465.261 16.9006C465.261 17.2926 465.534 17.3797 466.692 17.3797H468.074V19.0495H459.779V17.3797L459.811 17.3942ZM469.135 7.59366L467.013 12.69H471.434L469.119 7.59366H469.135Z" fill="#9D9D9D"/>
<path d="M486.063 17.3942H487.188C488.86 17.4232 489.117 17.2345 489.085 16.0584V7.43389C489.117 6.2433 488.86 6.06907 487.188 6.0981H486.063V4.42838H496.11C502.364 4.42838 505.643 6.92571 505.643 11.7607C505.643 16.5956 502.364 19.0784 496.11 19.0784H486.063V17.4087V17.3942ZM494.808 17.3942C497.782 17.3942 499.084 17.1038 500.113 16.2326C501.206 15.2889 501.833 13.6627 501.833 11.7607C501.833 9.85863 501.206 8.20342 500.113 7.25966C499.1 6.38849 497.782 6.0981 494.808 6.0981H492.477V17.4087H494.808V17.3942Z" fill="#9D9D9D"/>
<path d="M506.817 17.3942H507.91C509.566 17.4233 509.807 17.2345 509.775 16.0294V7.44846C509.807 6.24335 509.549 6.06912 507.91 6.08364H506.817V4.41391H524.339V10.2362H522.297C522.153 6.80961 521.269 6.04008 517.587 6.08364H513.183V10.5847H514.195C516.623 10.5411 516.848 10.3233 517.105 7.9276H519.195V15.2454H517.105C516.88 12.6174 516.526 12.2399 514.244 12.2544H513.166V17.3942H517.957C521.14 17.4233 521.912 16.5812 522.281 12.8497H524.323V19.064H506.801V17.3942H506.817Z" fill="#9D9D9D"/>
<path d="M532.923 17.3942H534.049C535.72 17.4233 535.978 17.2345 535.945 16.0585V7.44846C535.978 6.24335 535.72 6.08364 534.049 6.08364H532.923V4.41391H543.115C547.584 4.41391 549.77 5.6045 549.77 8.01472C549.77 9.81512 548.822 10.6718 546.153 11.3106C547.713 11.6155 548.372 11.8624 549.063 12.3415C550.012 12.9803 550.494 13.8951 550.494 15.1147C550.494 16.3343 549.963 17.3797 548.934 18.0186C547.665 18.7881 545.993 19.0785 542.585 19.0785H532.907V17.4088L532.923 17.3942ZM541.926 10.6427C543.967 10.6427 544.819 10.483 545.543 9.96032C546.105 9.58281 546.362 9.03108 546.362 8.36318C546.362 7.59366 546.025 6.98384 545.446 6.63538C544.787 6.25787 543.919 6.11268 542.183 6.11268H539.337V10.6572H541.909L541.926 10.6427ZM542.311 17.4088C544.16 17.4088 545.221 17.2345 545.928 16.8135C546.555 16.436 546.973 15.6664 546.973 14.8388C546.973 14.0112 546.587 13.2998 545.896 12.9223C545.092 12.4577 544.144 12.3125 542.054 12.3125H539.337V17.4088H542.295H542.311Z" fill="#9D9D9D"/>
<path d="M561.843 19.064H552.294V17.3942H553.388C555.043 17.4233 555.285 17.2345 555.252 16.0585V7.44846C555.285 6.24335 555.027 6.06912 553.388 6.08364H552.294V4.41391H562.937C565.348 4.41391 566.795 4.67526 567.968 5.31411C568.933 5.86585 569.527 6.82413 569.527 7.94212C569.527 9.13271 568.917 10.12 567.775 10.7589C566.955 11.2235 566.168 11.4123 564.415 11.6591C567.068 12.0075 567.936 12.7771 567.984 14.7953L568.081 16.0875C568.145 17.0603 568.322 17.3216 568.884 17.3216C569.56 17.3216 569.656 17.0167 569.704 14.8824H571.376C571.392 15.0566 571.392 15.2599 571.392 15.2744C571.392 16.9441 571.199 17.8008 570.685 18.4106C570.106 19.093 569.077 19.4705 567.727 19.4705C565.605 19.4705 564.367 18.4977 564.303 16.7989L564.223 15.0857C564.094 12.7771 563.226 12.1673 559.946 12.1673H558.628V16.0585C558.612 17.2491 558.853 17.4233 560.477 17.3942H561.811V19.064H561.843ZM561.972 10.4975C564.769 10.4975 565.991 9.84416 565.991 8.30511C565.991 7.43394 565.525 6.72249 564.753 6.4321C564.094 6.17076 563.387 6.08364 561.908 6.08364H558.676V10.4975H561.988H561.972Z" fill="#9D9D9D"/>
<path d="M572.485 17.3942H573.048C574.431 17.3942 574.993 17.0603 575.411 15.9859L580.362 4.41391H584.124L589.429 15.9859C589.96 17.22 590.233 17.3942 591.567 17.3942H592.098V19.064H582.902V17.3942H584.333C585.507 17.3942 585.812 17.2781 585.812 16.8425C585.812 16.7118 585.716 16.4505 585.571 16.1165L584.815 14.4032H578.932L578.128 16.2182C577.999 16.5521 577.935 16.7699 577.935 16.9006C577.935 17.2926 578.208 17.3797 579.366 17.3797H580.748V19.0495H572.453V17.3797L572.485 17.3942ZM581.793 7.59366L579.671 12.69H584.092L581.777 7.59366H581.793Z" fill="#9D9D9D"/>
<path d="M593.544 13.0239H595.618C596.084 14.8243 596.566 15.5938 597.708 16.3633C598.849 17.1764 600.087 17.5104 601.887 17.5104C604.202 17.5104 605.537 16.828 605.537 15.6229C605.537 14.5049 604.636 13.9096 602.209 13.4449L599.315 12.8932C595.184 12.1092 593.48 10.8315 593.48 8.50835C593.48 5.80775 596.052 3.9783 599.878 3.9783C601.887 3.9783 602.949 4.28321 605.087 5.48832L606.035 4.41388H607.61V9.97481H605.601C605.215 8.47931 604.556 7.49199 603.527 6.76602C602.627 6.15621 601.164 5.74967 599.83 5.74967C597.66 5.74967 596.357 6.4466 596.357 7.63719C596.357 8.20344 596.727 8.6971 597.386 9.01653C597.724 9.19076 598.351 9.365 599.299 9.53923L602.868 10.2216C604.331 10.483 605.778 10.9912 606.71 11.5574C607.852 12.2544 608.559 13.4885 608.559 14.8098C608.559 17.5394 605.762 19.4705 601.871 19.4705C599.798 19.4705 598.319 19.0349 595.988 17.6991L595.377 19.0639H593.56V13.0239H593.544Z" fill="#9D9D9D"/>
<path d="M610.247 17.3942H611.469C613.092 17.4233 613.35 17.2345 613.318 16.0584V7.43393C613.35 6.24334 613.092 6.0691 611.469 6.09814H610.247V4.42841H619.844V6.09814H618.622C616.967 6.0691 616.726 6.25786 616.758 7.43393V16.0584C616.726 17.249 616.983 17.4233 618.622 17.3942H619.844V19.064H610.247V17.3942ZM612.916 3.2233L616.275 0.566256C616.806 0.145194 617.127 0 617.513 0C618.124 0 618.639 0.46462 618.639 1.01636C618.639 1.48098 618.253 1.88752 617.594 2.11983L614.234 3.23782H612.916V3.2233Z" fill="#9D9D9D"/>
<path d="M630.759 4.41384V6.08357H629.425C627.801 6.05453 627.56 6.24329 627.576 7.41936V17.3797H631.049C634.843 17.4232 635.695 16.5666 635.743 12.7189H637.752V19.0349H621.194V17.3651H622.287C623.943 17.3942 624.184 17.2054 624.152 16.0294V7.40484C624.184 6.21425 623.927 6.04001 622.287 6.06905H621.194V4.39932H630.743L630.759 4.41384Z" fill="#9D9D9D"/>
<path d="M639.698 17.3942H640.919C642.543 17.4232 642.8 17.2345 642.768 16.0584V7.43389C642.8 6.2433 642.543 6.06907 640.919 6.09811H639.698V4.42838H649.295V6.09811H648.073C646.417 6.06907 646.176 6.25782 646.208 7.43389V16.0584C646.176 17.249 646.433 17.4232 648.073 17.3942H649.295V19.0639H639.698V17.3942Z" fill="#9D9D9D"/>
<path d="M650.388 17.3942H650.95C652.333 17.3942 652.896 17.0603 653.314 15.9859L658.265 4.41391H662.026L667.331 15.9859C667.862 17.22 668.135 17.3942 669.47 17.3942H670V19.064H660.805V17.3942H662.235C663.409 17.3942 663.714 17.2781 663.714 16.8425C663.714 16.7118 663.618 16.4505 663.473 16.1165L662.718 14.4032H656.834L656.03 16.2182C655.902 16.5521 655.837 16.7699 655.837 16.9006C655.837 17.2926 656.111 17.3797 657.268 17.3797H658.651V19.0495H650.356V17.3797L650.388 17.3942ZM659.696 7.59366L657.574 12.69H661.994L659.679 7.59366H659.696Z" fill="#9D9D9D"/>
</svg>
