<svg width="564" height="141" viewBox="0 0 564 141" fill="none" xmlns="http://www.w3.org/2000/svg">
<path d="M63.1893 139.749H6.10352e-05V1.26566H33.6806V121.971H63.1893V139.734V139.749Z" fill="black"/>
<path d="M159.415 139.749H126.04L120.354 102.564H105.407L99.6564 139.749H66.282L91.4739 1.26566H134.175L159.415 139.749ZM117.648 83.3459L112.8 42.0148L108.209 83.3459H117.648Z" fill="black"/>
<path d="M164.553 139.749V1.26566H204.226C213.697 1.26566 221.944 3.2151 228.918 7.11398C235.909 11.0129 239.388 17.2394 239.388 25.7937V45.0117C239.388 54.7298 232.832 61.5965 219.721 65.5827C233.541 68.6669 240.467 75.3299 240.467 85.5718V112.413C240.467 121.549 237.165 128.401 230.577 132.94C223.989 137.479 216.129 139.749 206.996 139.749H164.553ZM207.64 49.9144V26.2884C207.64 21.4438 204.499 19.0289 198.234 19.0289V57.2758C204.499 57.2758 207.64 54.8171 207.64 49.9144ZM207.64 114.639V79.5925C207.64 74.7626 204.499 72.3476 198.234 72.3476V121.986C204.499 121.986 207.64 119.542 207.64 114.653V114.639Z" fill="black"/>
<path d="M274.776 139.749H246.975V119.57H274.776V139.749Z" fill="black"/>
<path d="M355.071 49.6526H324.499V22.2295C324.499 19.9745 322.953 18.8543 319.844 18.8543C316.736 18.8543 314.98 19.9745 314.98 22.2295V118.32C314.98 120.574 316.607 121.695 319.844 121.695C323.082 121.695 324.499 120.574 324.499 118.32V84.1315H355.071V119.28C355.071 125.841 351.511 131.107 344.376 135.064C337.24 139.021 329.187 141 320.215 141C294.266 141 281.299 132.693 281.299 116.079V26.943C281.299 8.97616 294.266 0 320.215 0C343.458 0 355.071 8.17602 355.071 24.5281V49.638V49.6526Z" fill="black"/>
<path d="M362.126 116.079V26.943C362.126 8.97616 375.012 0 400.784 0C426.556 0 438.894 8.91797 438.894 26.7539V115.89C438.894 123.935 435.35 130.133 428.263 134.482C421.176 138.832 411.946 141 400.558 141C374.931 141 362.126 132.693 362.126 116.079ZM406.067 117.534V23.1896C406.067 20.4255 404.247 19.0434 400.623 19.0434C396.999 19.0434 394.953 20.4255 394.953 23.1896V117.534C394.953 120.298 396.837 121.68 400.623 121.68C404.408 121.68 406.067 120.298 406.067 117.534Z" fill="black"/>
<path d="M563.356 139.749H533.315V62.0184L515.775 139.749H492.58L472.478 62.0184V139.749H446.175V1.26566H489.471L504.87 73.1186L518.239 1.26566H563.356V139.749Z" fill="black"/>
</svg>
