<svg width="563" height="20" viewBox="0 0 563 20" fill="none" xmlns="http://www.w3.org/2000/svg">
<path d="M0.0160668 4.41391H9.27562V6.08364H8.05387C6.43023 6.0546 6.17303 6.24335 6.20519 7.41942V14.4178C6.20519 15.6519 6.43024 16.1891 7.05719 16.6102C7.73237 17.0748 8.77728 17.3362 9.91865 17.3362C11.06 17.3362 12.2014 17.0458 12.9569 16.5521C13.616 16.1311 13.8572 15.5358 13.8572 14.4178V7.41942C13.8893 6.22883 13.6321 6.0546 12.0085 6.08364H10.9153V4.41391H19.1782V6.08364H18.3262C16.7025 6.0546 16.4453 6.24335 16.4775 7.41942V14.4178C16.4775 15.9713 15.947 17.249 14.9182 18.0331C13.7446 18.9623 11.8316 19.485 9.59713 19.485C7.58768 19.485 5.89974 19.064 4.61369 18.2364C3.34372 17.4233 2.79715 16.2617 2.79715 14.4178V7.41942C2.8293 6.22883 2.57209 6.0546 0.932376 6.08364H0V4.41391H0.0160668Z" fill="#9D9D9D"/>
<path d="M34.7876 19.0639L25.7371 7.1435V16.0584C25.7371 17.249 25.9621 17.4232 27.5536 17.3942H28.8236V19.0639H20.0463V17.3942H21.3323C22.956 17.4232 23.1971 17.2345 23.181 16.0584V7.43389C23.1971 6.2433 22.956 6.06907 21.3323 6.09811H20.1428V4.42838H27.6983L35.7683 15.0566V7.43389C35.8004 6.2433 35.5432 6.06907 33.9196 6.09811H32.6335V4.42838H41.0732V6.09811H40.173C38.5493 6.06907 38.3082 6.25782 38.3243 7.43389V19.0639H34.7716H34.7876Z" fill="#9D9D9D"/>
<path d="M42.2628 17.3942H43.4846C45.1082 17.4232 45.3494 17.2345 45.3333 16.0584V7.43389C45.3494 6.2433 45.1082 6.06907 43.4846 6.09811H42.2628V4.42838H51.86V6.09811H50.6383C48.9825 6.06907 48.7413 6.25782 48.7735 7.43389V16.0584C48.7413 17.249 48.9985 17.4232 50.6383 17.3942H51.86V19.0639H42.2628V17.3942Z" fill="#9D9D9D"/>
<path d="M55.7824 7.46298C55.3645 6.43211 54.8822 6.09816 53.7408 6.08364H52.9692V4.41391H62.3091V6.08364H60.9266C59.9139 6.08364 59.5441 6.25787 59.5441 6.73701C59.5441 6.98384 59.6727 7.37587 59.8335 7.81145L63.1451 15.4051L66.6656 7.63722C66.7942 7.34683 66.9389 6.85317 66.9389 6.6499C66.9389 6.21431 66.5692 6.08364 65.2671 6.08364H64.0935V4.41391H72.5814V6.08364H72.051C70.6363 6.1272 70.2987 6.33047 69.7682 7.50654L64.4954 19.0495H60.8302L55.8307 7.46298H55.7824Z" fill="#9D9D9D"/>
<path d="M73.6906 17.3942H74.7838C76.4395 17.4233 76.6807 17.2345 76.6485 16.0294V7.44846C76.6646 6.24335 76.4235 6.06912 74.7838 6.08364H73.6906V4.41391H91.213V10.2362H89.1714C89.0267 6.80961 88.1587 6.04008 84.4613 6.08364H80.0565V10.5847H81.0693C83.4967 10.5411 83.7218 10.3233 83.979 7.9276H86.0688V15.2454H83.979C83.7539 12.6174 83.4003 12.2399 81.1175 12.2544H80.0405V17.3942H84.831C88.014 17.4233 88.7856 16.5812 89.1554 12.8497H91.1969V19.064H73.6745V17.3942H73.6906Z" fill="#9D9D9D"/>
<path d="M103.286 19.064H93.7369V17.3942H94.83C96.4858 17.4233 96.727 17.2345 96.6948 16.0585V7.44846C96.7109 6.24335 96.4698 6.06912 94.83 6.08364H93.7369V4.41391H104.379C106.79 4.41391 108.237 4.67526 109.411 5.31411C110.391 5.86585 110.97 6.82413 110.97 7.94212C110.97 9.13271 110.359 10.12 109.218 10.7589C108.398 11.2235 107.61 11.4123 105.858 11.6591C108.51 12.0075 109.378 12.7771 109.427 14.7953L109.523 16.0875C109.587 17.0603 109.764 17.3216 110.327 17.3216C111.002 17.3216 111.099 17.0167 111.147 14.8824H112.819C112.835 15.0566 112.835 15.2599 112.835 15.2744C112.835 16.9441 112.642 17.8008 112.127 18.4106C111.549 19.093 110.52 19.4705 109.17 19.4705C107.048 19.4705 105.81 18.4977 105.745 16.7989L105.665 15.0857C105.536 12.7771 104.668 12.1673 101.389 12.1673H100.071V16.0585C100.039 17.2491 100.296 17.4233 101.919 17.3942H103.254V19.064H103.286ZM103.398 10.4975C106.195 10.4975 107.417 9.84416 107.417 8.30511C107.417 7.43394 106.951 6.72249 106.179 6.4321C105.52 6.17076 104.813 6.08364 103.334 6.08364H100.103V10.4975H103.414H103.398Z" fill="#9D9D9D"/>
<path d="M114.941 13.0239H117.014C117.481 14.8243 117.963 15.5938 119.104 16.3633C120.246 17.1764 121.483 17.5104 123.284 17.5104C125.599 17.5104 126.933 16.828 126.933 15.6229C126.933 14.5049 126.033 13.9096 123.605 13.4449L120.712 12.8932C116.58 12.1092 114.876 10.8315 114.876 8.50835C114.876 5.80775 117.448 3.9783 121.274 3.9783C123.284 3.9783 124.345 4.28321 126.483 5.48832L127.431 4.41388H129.007V9.97481H126.997C126.612 8.47931 125.952 7.49199 124.924 6.76602C124.023 6.15621 122.561 5.74967 121.226 5.74967C119.056 5.74967 117.754 6.4466 117.754 7.63719C117.754 8.20344 118.124 8.6971 118.767 9.01653C119.104 9.19076 119.731 9.365 120.68 9.53923L124.248 10.2216C125.711 10.483 127.158 10.9912 128.091 11.5574C129.232 12.2544 129.939 13.4885 129.939 14.8098C129.939 17.5394 127.142 19.4705 123.252 19.4705C121.178 19.4705 119.699 19.0349 117.368 17.6991L116.757 19.0639H114.941V13.0239Z" fill="#9D9D9D"/>
<path d="M131.643 17.3942H132.865C134.489 17.4232 134.73 17.2345 134.714 16.0584V7.43389C134.73 6.2433 134.489 6.06907 132.865 6.09811H131.643V4.42838H141.24V6.09811H140.019C138.363 6.06907 138.122 6.25782 138.154 7.43389V16.0584C138.122 17.249 138.379 17.4232 140.019 17.3942H141.24V19.0639H131.643V17.3942Z" fill="#9D9D9D"/>
<path d="M142.591 17.3942H143.716C145.388 17.4232 145.629 17.2345 145.613 16.0584V7.43389C145.629 6.2433 145.388 6.06907 143.716 6.0981H142.591V4.42838H152.638C158.891 4.42838 162.171 6.92571 162.171 11.7607C162.171 16.5956 158.891 19.0784 152.638 19.0784H142.591V17.4087V17.3942ZM151.352 17.3942C154.31 17.3942 155.628 17.1038 156.657 16.2326C157.75 15.2889 158.377 13.6627 158.377 11.7607C158.377 9.85863 157.75 8.20342 156.657 7.25966C155.628 6.38849 154.326 6.0981 151.352 6.0981H149.021V17.4087H151.352V17.3942Z" fill="#9D9D9D"/>
<path d="M162.364 17.3942H162.926C164.309 17.3942 164.871 17.0603 165.289 15.9859L170.241 4.41391H174.002L179.307 15.9859C179.838 17.22 180.111 17.3942 181.445 17.3942H181.976V19.064H172.781V17.3942H174.211C175.385 17.3942 175.69 17.2781 175.69 16.8425C175.69 16.7118 175.594 16.4505 175.449 16.1165L174.694 14.4032H168.81L168.006 16.2182C167.878 16.5521 167.813 16.7699 167.813 16.9006C167.813 17.2926 168.087 17.3797 169.244 17.3797H170.627V19.0495H162.332V17.3797L162.364 17.3942ZM171.688 7.59366L169.566 12.69H173.986L171.671 7.59366H171.688Z" fill="#9D9D9D"/>
<path d="M182.539 17.3942H183.664C185.336 17.4232 185.577 17.2345 185.561 16.0584V7.43389C185.577 6.2433 185.336 6.06907 183.664 6.0981H182.539V4.42838H192.586C198.839 4.42838 202.119 6.92571 202.119 11.7607C202.119 16.5956 198.839 19.0784 192.586 19.0784H182.539V17.4087V17.3942ZM191.284 17.3942C194.242 17.3942 195.56 17.1038 196.589 16.2326C197.682 15.2889 198.309 13.6627 198.309 11.7607C198.309 9.85863 197.682 8.20342 196.589 7.25966C195.56 6.38849 194.258 6.0981 191.284 6.0981H188.953V17.4087H191.284V17.3942Z" fill="#9D9D9D"/>
<path d="M203.292 17.3942H204.385C206.041 17.4233 206.282 17.2345 206.25 16.0294V7.44846C206.282 6.24335 206.025 6.06912 204.385 6.08364H203.292V4.41391H220.815V10.2362H218.773C218.628 6.80961 217.76 6.04008 214.063 6.08364H209.658V10.5847H210.687C213.114 10.5411 213.339 10.3233 213.597 7.9276H215.686V15.2454H213.597C213.372 12.6174 213.018 12.2399 210.735 12.2544H209.658V17.3942H214.449C217.632 17.4233 218.403 16.5812 218.773 12.8497H220.815V19.064H203.292V17.3942Z" fill="#9D9D9D"/>
<path d="M246.214 13.3869C245.893 15.5212 245.507 16.465 244.494 17.4668C243.128 18.8026 241.263 19.4705 238.755 19.4705C233.498 19.4705 229.688 16.2182 229.688 11.7171C229.688 7.21613 233.579 3.99283 238.562 3.99283C240.572 3.99283 241.681 4.29774 243.787 5.50285L244.317 4.18158H246.214V10.1781H244.172C243.835 8.55192 243.497 7.85499 242.694 7.09998C241.777 6.24333 240.427 5.76419 238.932 5.76419C235.556 5.76419 233.482 8.04374 233.482 11.8043C233.482 13.6337 233.948 14.984 234.865 15.9278C235.813 16.9151 237.324 17.4668 238.98 17.4668C240.363 17.4668 241.536 17.0893 242.404 16.3488C243.208 15.6664 243.578 14.9695 243.963 13.3869H246.23H246.214Z" fill="#9D9D9D"/>
<path d="M246.954 17.3942H247.516C248.899 17.3942 249.461 17.0603 249.879 15.9859L254.831 4.41391H258.592L263.897 15.9859C264.428 17.22 264.701 17.3942 266.035 17.3942H266.566V19.064H257.371V17.3942H258.801C259.975 17.3942 260.28 17.2781 260.28 16.8425C260.28 16.7118 260.184 16.4505 260.039 16.1165L259.284 14.4032H253.4L252.596 16.2182C252.468 16.5521 252.403 16.7699 252.403 16.9006C252.403 17.2926 252.676 17.3797 253.834 17.3797H255.216V19.0495H246.921V17.3797L246.954 17.3942ZM256.261 7.59366L254.139 12.69H258.56L256.245 7.59366H256.261Z" fill="#9D9D9D"/>
<path d="M272.851 6.04008C269.524 5.99652 268.302 7.14356 268.205 10.4685H266.164V4.41391H282.931V10.4685H280.889C280.793 7.15807 279.571 5.99652 276.243 6.04008V16.0585C276.227 17.2491 276.468 17.4233 278.092 17.3942H279.7V19.064H269.395V17.3942H271.003C272.626 17.4233 272.883 17.2345 272.851 16.0585V6.04008Z" fill="#9D9D9D"/>
<path d="M304.231 11.7171C304.231 16.3488 300.293 19.4705 294.457 19.4705C291.596 19.4705 289.281 18.8171 287.512 17.4523C285.535 15.9859 284.619 14.0983 284.619 11.6155C284.619 9.39405 285.664 7.36133 287.512 6.01103C289.361 4.64621 291.596 3.99283 294.441 3.99283C300.293 3.99283 304.231 7.08546 304.231 11.7171ZM288.413 11.63C288.413 13.6337 288.847 14.9259 289.892 16.0149C290.969 17.1329 292.512 17.7282 294.441 17.7282C296.37 17.7282 297.913 17.1329 298.958 16.0149C299.971 14.9405 300.437 13.6192 300.437 11.7317C300.437 9.84415 299.971 8.46481 298.958 7.43393C297.865 6.2869 296.338 5.72064 294.441 5.72064C290.679 5.72064 288.413 7.94211 288.413 11.63ZM292.287 3.22331L295.615 0.566256C296.145 0.130674 296.467 0 296.884 0C297.495 0 298.01 0.464621 298.01 1.01636C298.01 1.48098 297.624 1.88752 296.965 2.11983L293.605 3.23782H292.287V3.22331Z" fill="#9D9D9D"/>
<path d="M315.371 4.41384V6.08357H314.037C312.413 6.05453 312.172 6.24329 312.188 7.41936V17.3797H315.661C319.455 17.4232 320.306 16.5666 320.355 12.7189H322.364V19.0349H305.806V17.3651H306.899C308.555 17.3942 308.796 17.2054 308.764 16.0294V7.40484C308.796 6.21425 308.539 6.04001 306.899 6.06905H305.806V4.39932H315.355L315.371 4.41384Z" fill="#9D9D9D"/>
<path d="M324.309 17.3942H325.531C327.155 17.4232 327.412 17.2345 327.38 16.0584V7.43389C327.412 6.2433 327.155 6.06907 325.531 6.09811H324.309V4.42838H333.906V6.09811H332.685C331.029 6.06907 330.788 6.25782 330.82 7.43389V16.0584C330.788 17.249 331.045 17.4232 332.685 17.3942H333.906V19.0639H324.309V17.3942Z" fill="#9D9D9D"/>
<path d="M352.072 13.3869C351.75 15.5212 351.365 16.465 350.352 17.4668C348.985 18.8026 347.121 19.4705 344.613 19.4705C339.356 19.4705 335.546 16.2182 335.546 11.7171C335.546 7.21613 339.437 3.99283 344.42 3.99283C346.429 3.99283 347.539 4.29774 349.645 5.50285L350.175 4.18158H352.072V10.1781H350.03C349.693 8.55192 349.355 7.85499 348.551 7.09998C347.619 6.24333 346.285 5.76419 344.79 5.76419C341.414 5.76419 339.34 8.04374 339.34 11.8043C339.34 13.6337 339.806 14.984 340.723 15.9278C341.671 16.9151 343.182 17.4668 344.822 17.4668C346.204 17.4668 347.378 17.0893 348.246 16.3488C349.05 15.6664 349.419 14.9695 349.805 13.3869H352.072Z" fill="#9D9D9D"/>
<path d="M352.811 17.3942H353.374C354.757 17.3942 355.319 17.0603 355.737 15.9859L360.688 4.41391H364.45L369.755 15.9859C370.286 17.22 370.559 17.3942 371.893 17.3942H372.424V19.064H363.228V17.3942H364.659C365.833 17.3942 366.138 17.2781 366.138 16.8425C366.138 16.7118 366.042 16.4505 365.897 16.1165L365.141 14.4032H359.258L358.454 16.2182C358.325 16.5521 358.261 16.7699 358.261 16.9006C358.261 17.2926 358.534 17.3797 359.692 17.3797H361.074V19.0495H352.779V17.3797L352.811 17.3942ZM362.135 7.59366L360.013 12.69H364.434L362.119 7.59366H362.135Z" fill="#9D9D9D"/>
<path d="M379.063 17.3942H380.188C381.86 17.4232 382.117 17.2345 382.085 16.0584V7.43389C382.117 6.2433 381.86 6.06907 380.188 6.0981H379.063V4.42838H389.11C395.364 4.42838 398.643 6.92571 398.643 11.7607C398.643 16.5956 395.364 19.0784 389.11 19.0784H379.063V17.4087V17.3942ZM387.808 17.3942C390.782 17.3942 392.084 17.1038 393.113 16.2326C394.206 15.2889 394.833 13.6627 394.833 11.7607C394.833 9.85863 394.206 8.20342 393.113 7.25966C392.1 6.38849 390.782 6.0981 387.808 6.0981H385.477V17.4087H387.808V17.3942Z" fill="#9D9D9D"/>
<path d="M399.817 17.3942H400.91C402.566 17.4233 402.807 17.2345 402.775 16.0294V7.44846C402.807 6.24335 402.549 6.06912 400.91 6.08364H399.817V4.41391H417.339V10.2362H415.297C415.153 6.80961 414.269 6.04008 410.587 6.08364H406.183V10.5847H407.195C409.623 10.5411 409.848 10.3233 410.105 7.9276H412.195V15.2454H410.105C409.88 12.6174 409.526 12.2399 407.244 12.2544H406.166V17.3942H410.957C414.14 17.4233 414.912 16.5812 415.281 12.8497H417.323V19.064H399.801V17.3942H399.817Z" fill="#9D9D9D"/>
<path d="M425.923 17.3942H427.048C428.72 17.4233 428.978 17.2345 428.945 16.0585V7.44846C428.978 6.24335 428.72 6.08364 427.048 6.08364H425.923V4.41391H436.115C440.584 4.41391 442.77 5.6045 442.77 8.01472C442.77 9.81512 441.822 10.6718 439.153 11.3106C440.713 11.6155 441.372 11.8624 442.063 12.3415C443.012 12.9803 443.494 13.8951 443.494 15.1147C443.494 16.3343 442.963 17.3797 441.934 18.0186C440.664 18.7881 438.993 19.0785 435.585 19.0785H425.907V17.4088L425.923 17.3942ZM434.926 10.6427C436.967 10.6427 437.819 10.483 438.543 9.96032C439.105 9.58281 439.362 9.03108 439.362 8.36318C439.362 7.59366 439.025 6.98384 438.446 6.63538C437.787 6.25787 436.919 6.11268 435.183 6.11268H432.337V10.6572H434.909L434.926 10.6427ZM435.311 17.4088C437.16 17.4088 438.221 17.2345 438.928 16.8135C439.555 16.436 439.973 15.6664 439.973 14.8388C439.973 14.0112 439.587 13.2998 438.896 12.9223C438.092 12.4577 437.144 12.3125 435.054 12.3125H432.337V17.4088H435.295H435.311Z" fill="#9D9D9D"/>
<path d="M454.843 19.064H445.294V17.3942H446.388C448.043 17.4233 448.285 17.2345 448.252 16.0585V7.44846C448.285 6.24335 448.027 6.06912 446.388 6.08364H445.294V4.41391H455.936C458.348 4.41391 459.795 4.67526 460.968 5.31411C461.933 5.86585 462.527 6.82413 462.527 7.94212C462.527 9.13271 461.917 10.12 460.775 10.7589C459.955 11.2235 459.168 11.4123 457.415 11.6591C460.068 12.0075 460.936 12.7771 460.984 14.7953L461.081 16.0875C461.145 17.0603 461.322 17.3216 461.884 17.3216C462.56 17.3216 462.656 17.0167 462.704 14.8824H464.376C464.392 15.0566 464.392 15.2599 464.392 15.2744C464.392 16.9441 464.199 17.8008 463.685 18.4106C463.106 19.093 462.077 19.4705 460.727 19.4705C458.605 19.4705 457.367 18.4977 457.303 16.7989L457.223 15.0857C457.094 12.7771 456.226 12.1673 452.946 12.1673H451.628V16.0585C451.612 17.2491 451.853 17.4233 453.477 17.3942H454.811V19.064H454.843ZM454.972 10.4975C457.769 10.4975 458.991 9.84416 458.991 8.30511C458.991 7.43394 458.525 6.72249 457.753 6.4321C457.094 6.17076 456.387 6.08364 454.908 6.08364H451.676V10.4975H454.988H454.972Z" fill="#9D9D9D"/>
<path d="M465.485 17.3942H466.048C467.431 17.3942 467.993 17.0603 468.411 15.9859L473.362 4.41391H477.124L482.429 15.9859C482.96 17.22 483.233 17.3942 484.567 17.3942H485.098V19.064H475.902V17.3942H477.333C478.507 17.3942 478.812 17.2781 478.812 16.8425C478.812 16.7118 478.716 16.4505 478.571 16.1165L477.815 14.4032H471.932L471.128 16.2182C470.999 16.5521 470.935 16.7699 470.935 16.9006C470.935 17.2926 471.208 17.3797 472.366 17.3797H473.748V19.0495H465.453V17.3797L465.485 17.3942ZM474.793 7.59366L472.671 12.69H477.092L474.777 7.59366H474.793Z" fill="#9D9D9D"/>
<path d="M486.544 13.0239H488.618C489.084 14.8243 489.566 15.5938 490.708 16.3633C491.849 17.1764 493.087 17.5104 494.887 17.5104C497.202 17.5104 498.537 16.828 498.537 15.6229C498.537 14.5049 497.636 13.9096 495.209 13.4449L492.315 12.8932C488.184 12.1092 486.48 10.8315 486.48 8.50835C486.48 5.80775 489.052 3.9783 492.878 3.9783C494.887 3.9783 495.948 4.28321 498.087 5.48832L499.035 4.41388H500.61V9.97481H498.601C498.215 8.47931 497.556 7.49199 496.527 6.76602C495.627 6.15621 494.164 5.74967 492.83 5.74967C490.66 5.74967 489.357 6.4466 489.357 7.63719C489.357 8.20344 489.727 8.6971 490.386 9.01653C490.724 9.19076 491.351 9.365 492.299 9.53923L495.868 10.2216C497.331 10.483 498.778 10.9912 499.71 11.5574C500.852 12.2544 501.559 13.4885 501.559 14.8098C501.559 17.5394 498.762 19.4705 494.871 19.4705C492.798 19.4705 491.319 19.0349 488.988 17.6991L488.377 19.0639H486.56V13.0239H486.544Z" fill="#9D9D9D"/>
<path d="M503.247 17.3942H504.469C506.092 17.4233 506.35 17.2345 506.317 16.0584V7.43393C506.35 6.24334 506.092 6.0691 504.469 6.09814H503.247V4.42841H512.844V6.09814H511.622C509.967 6.0691 509.725 6.25786 509.758 7.43393V16.0584C509.725 17.249 509.983 17.4233 511.622 17.3942H512.844V19.064H503.247V17.3942ZM505.916 3.2233L509.275 0.566256C509.806 0.145194 510.127 0 510.513 0C511.124 0 511.639 0.46462 511.639 1.01636C511.639 1.48098 511.253 1.88752 510.594 2.11983L507.234 3.23782H505.916V3.2233Z" fill="#9D9D9D"/>
<path d="M523.759 4.41384V6.08357H522.425C520.801 6.05453 520.56 6.24329 520.576 7.41936V17.3797H524.049C527.843 17.4232 528.694 16.5666 528.743 12.7189H530.752V19.0349H514.194V17.3651H515.287C516.943 17.3942 517.184 17.2054 517.152 16.0294V7.40484C517.184 6.21425 516.927 6.04001 515.287 6.06905H514.194V4.39932H523.743L523.759 4.41384Z" fill="#9D9D9D"/>
<path d="M532.697 17.3942H533.919C535.543 17.4232 535.8 17.2345 535.768 16.0584V7.43389C535.8 6.2433 535.543 6.06907 533.919 6.09811H532.697V4.42838H542.295V6.09811H541.073C539.417 6.06907 539.176 6.25782 539.208 7.43389V16.0584C539.176 17.249 539.433 17.4232 541.073 17.3942H542.295V19.0639H532.697V17.3942Z" fill="#9D9D9D"/>
<path d="M543.388 17.3942H543.95C545.333 17.3942 545.896 17.0603 546.314 15.9859L551.265 4.41391H555.026L560.331 15.9859C560.862 17.22 561.135 17.3942 562.469 17.3942H563V19.064H553.805V17.3942H555.235C556.409 17.3942 556.714 17.2781 556.714 16.8425C556.714 16.7118 556.618 16.4505 556.473 16.1165L555.718 14.4032H549.834L549.03 16.2182C548.902 16.5521 548.837 16.7699 548.837 16.9006C548.837 17.2926 549.111 17.3797 550.268 17.3797H551.651V19.0495H543.356V17.3797L543.388 17.3942ZM552.695 7.59366L550.574 12.69H554.994L552.679 7.59366H552.695Z" fill="#9D9D9D"/>
</svg>
