<svg width="1280" height="1086" viewBox="0 0 1280 1086" fill="none" xmlns="http://www.w3.org/2000/svg">
<g filter="url(#filter0_g_1_136)">
<line x1="77.4999" y1="1085" x2="77.4998" y2="2.18556e-08" stroke="#CCCCCC" stroke-dasharray="10 10"/>
<line x1="236.5" y1="1085" x2="236.5" y2="2.18556e-08" stroke="#CCCCCC" stroke-dasharray="10 10"/>
<line x1="395.5" y1="1085" x2="395.5" y2="2.18556e-08" stroke="#CCCCCC" stroke-dasharray="10 10"/>
<line x1="554.5" y1="1085" x2="554.5" y2="2.18556e-08" stroke="#CCCCCC" stroke-dasharray="10 10"/>
<line x1="713.5" y1="1085" x2="713.5" y2="2.18556e-08" stroke="#CCCCCC" stroke-dasharray="10 10"/>
<line x1="872.5" y1="1085" x2="872.5" y2="2.18556e-08" stroke="#CCCCCC" stroke-dasharray="10 10"/>
<line x1="1031.5" y1="1085" x2="1031.5" y2="2.18556e-08" stroke="#CCCCCC" stroke-dasharray="10 10"/>
<line x1="1190.5" y1="1085" x2="1190.5" y2="2.18556e-08" stroke="#CCCCCC" stroke-dasharray="10 10"/>
<line x1="1195" y1="1020" x2="-87" y2="1020" stroke="#CCCCCC" stroke-dasharray="2 2"/>
<line x1="1195" y1="861" x2="-87" y2="861" stroke="#CCCCCC"/>
<line x1="1195" y1="702" x2="-87" y2="702" stroke="#CCCCCC"/>
<line x1="1195" y1="543" x2="-87" y2="543" stroke="#CCCCCC"/>
<line x1="1195" y1="384" x2="-87" y2="384" stroke="#CCCCCC"/>
<line x1="1195" y1="225" x2="-87" y2="225" stroke="#CCCCCC"/>
<line x1="1195" y1="65.9999" x2="-87" y2="66.0001" stroke="#CCCCCC"/>
</g>
<defs>
<filter id="filter0_g_1_136" x="-185.8" y="-0.800061" width="1536.6" height="1086.6" filterUnits="userSpaceOnUse" color-interpolation-filters="sRGB">
<feFlood flood-opacity="0" result="BackgroundImageFix"/>
<feBlend mode="normal" in="SourceGraphic" in2="BackgroundImageFix" result="shape"/>
<feTurbulence type="fractalNoise" baseFrequency="0.064935065805912018 0.064935065805912018" numOctaves="3" seed="8973" />
<feDisplacementMap in="shape" scale="1.6000000238418579" xChannelSelector="R" yChannelSelector="G" result="displacedImage" width="100%" height="100%" />
<feMerge result="effect1_texture_1_136">
<feMergeNode in="displacedImage"/>
</feMerge>
</filter>
</defs>
</svg>
