<svg width="160" height="160" viewBox="0 0 160 160" fill="none" xmlns="http://www.w3.org/2000/svg">
  <rect width="160" height="160" rx="36" fill="#0C2142" />
  <g transform="translate(26, 9.5)">
    <path d="M104.158 31.4125C100.441 23.3671 96.511 15.3957 92.6794 7.37986C91.5005 4.92484 90.3543 2.45502 89.1917 0H86.4571C86.6209 1.02046 86.7519 2.04092 86.9484 3.06138C87.5542 6.28545 88.1601 9.52431 88.8151 12.7484C89.4864 16.0316 90.2233 19.3148 90.8946 22.598C91.4513 25.3489 91.9098 28.1292 92.4666 30.8801C93.187 34.4295 94.3987 37.9493 94.5789 41.5136C94.8081 45.9947 94.4479 50.535 93.9566 55.0014C93.3671 60.2072 90.9274 64.8806 88.1764 69.4358C84.3776 75.736 80.6769 82.0806 76.9763 88.4104C73.5213 94.3114 70.0827 100.227 66.6768 106.143C62.9598 112.591 59.3083 119.069 55.5749 125.502C53.0533 129.85 50.417 134.154 47.8789 138.502C47.5842 139.005 47.5514 139.641 47.3877 140.247C51.2521 140.705 51.7269 140.484 53.3644 137.718C53.6755 137.2 54.003 136.697 54.3468 136.209C56.7375 132.941 59.1773 129.687 61.5025 126.389C64.4335 122.248 67.2826 118.048 70.1973 113.878C73.5704 109.071 76.9763 104.265 80.3986 99.4876C83.8372 94.6811 87.3577 89.9041 90.7636 85.068C93.7274 80.8679 96.7239 76.6677 99.4584 72.3492C103.028 66.7293 105.582 60.7101 107.597 54.4838V40.6706C106.467 37.5648 105.566 34.3703 104.174 31.3681L104.158 31.4125Z" fill="#A5BFE2"/>
    <path d="M61.2568 86.9315C65.2521 83.6778 69.3949 80.5573 73.161 77.0966C77.6312 73 81.9868 68.7702 85.9822 64.2891C89.7483 60.0593 92.008 55.1493 91.5495 49.5146C91.3366 46.956 91.222 44.3827 90.7144 41.8833C90.2068 39.3987 89.6337 36.8401 88.4711 34.5478C85.4255 28.5286 82.0523 22.6424 78.8102 16.6971C76.9926 13.3547 75.1587 10.0124 73.3739 6.65518C72.2604 4.58468 70.7703 3.7269 69.0346 4.24453C69.313 5.42767 69.4931 6.64039 69.9025 7.79396C70.7703 10.2342 71.851 12.6153 72.7025 15.0555C74.5528 20.3501 76.3704 25.6446 78.1061 30.954C79.2523 34.4295 80.7096 37.905 81.1845 41.4544C81.6593 45.063 82.0523 48.8786 80.4968 52.4281C79.3342 55.0754 78.3517 57.9001 76.5341 60.1481C73.7014 63.6531 70.2791 66.8033 67.0042 70.0125C59.9304 76.9339 52.7748 83.7814 45.6847 90.6732C38.0051 98.1418 30.3582 105.64 22.6622 113.109C20.2224 115.49 17.6844 117.782 15.2118 120.133C14.7206 120.607 14.3931 121.213 14.0001 121.746C14.1311 121.967 14.2457 122.189 14.3767 122.411C15.8668 122.1 17.7007 122.189 18.7651 121.42C22.5476 118.684 26.1008 115.667 29.7032 112.724C34.2717 108.982 38.8074 105.226 43.3595 101.469C45.6192 99.6059 47.8461 97.7425 50.1222 95.8938C53.8228 92.8916 57.5725 89.9337 61.2732 86.9167L61.2568 86.9315Z" fill="#A5BFE2"/>
    <path d="M35.6308 85.3639C39.9537 82.6131 44.342 79.9362 48.6812 77.1854C53.4462 74.1684 58.2275 71.1514 62.9106 68.0309C66.3001 65.7829 69.8207 63.6088 72.7844 60.932C75.5681 58.4178 77.6313 55.2381 78.5974 51.7035C79.1377 49.7217 79.7272 47.6068 79.498 45.6399C78.9085 40.6115 76.6161 36.086 73.6195 31.8119C69.4768 25.9257 65.4978 19.936 61.5188 13.9612C60.258 12.0681 59.0135 11.2695 56.7375 11.6245C57.2451 12.6745 57.6872 13.5766 58.0965 14.4788C61.1586 21.1931 64.1715 27.9223 67.2826 34.607C69.313 38.9847 70.9341 43.2588 69.8207 48.2575C69.1329 51.3337 67.6429 53.6852 65.4978 55.874C64.3516 57.0424 62.927 58.0037 61.6171 59.0537C59.0135 61.1242 56.4427 63.2391 53.7573 65.2357C51.0228 67.2914 48.1245 69.1696 45.39 71.2253C40.494 74.8783 35.6963 78.6496 30.8003 82.3025C24.9547 86.6802 19.0762 90.9986 13.1814 95.3171C11.6259 96.4559 9.95567 97.4911 8.41647 98.6447C5.71468 100.686 3.04565 102.786 0 105.152C2.21055 105.418 3.7825 105.684 5.30532 104.59C6.97552 103.377 8.72758 102.283 10.496 101.188C13.3779 99.4137 16.3253 97.713 19.1745 95.9087C24.6763 92.4184 30.129 88.8542 35.6144 85.3639H35.6308Z" fill="#A5BFE2"/>
  </g>
</svg>
