<svg width="1280" height="434" viewBox="0 0 1280 434" fill="none" xmlns="http://www.w3.org/2000/svg">
<g filter="url(#filter0_g_1_37)">
<path d="M196.228 11.7429C199.614 18.8978 202.962 26.1057 206.4 33.2654C217.725 56.958 229.333 80.5016 240.314 104.27L240.819 105.365L240.864 105.243C244.67 113.737 247.226 122.687 250.428 131.503V172.153C244.49 190.497 236.964 208.216 226.459 224.754V224.755C218.388 237.502 209.542 249.901 200.782 262.315H200.781C191.975 274.819 182.917 287.179 173.979 299.594L170.157 304.92C160.044 319.036 149.979 333.24 140.011 347.443L140.01 347.444C131.391 359.778 122.982 372.175 114.321 384.412H114.32C107.453 394.152 100.25 403.757 93.1812 413.422L93.1763 413.429C92.1532 414.881 91.1788 416.377 90.2534 417.917L90.2515 417.92C87.8174 422.031 86.3318 424.082 84.1235 425.023C83.0181 425.495 81.6958 425.701 79.9185 425.7C78.2566 425.699 76.2274 425.513 73.6431 425.214C73.8131 424.478 73.945 423.726 74.0913 423.061C74.2817 422.196 74.5099 421.417 74.9048 420.743H74.9058C82.3862 407.928 90.2053 395.157 97.645 382.329L97.646 382.33C108.676 363.323 119.473 344.17 130.451 325.126V325.125C137.998 312.016 145.6 298.907 153.236 285.816L160.882 272.732C171.817 254.028 182.749 235.283 193.972 216.671L193.973 216.672C202.106 203.204 209.367 189.315 211.122 173.818V173.817C212.529 161.025 213.575 148.004 213.021 135.128L212.962 133.883C212.694 128.571 211.658 123.304 210.428 118.067C209.272 113.142 207.952 108.274 206.916 103.37L206.711 102.388C205.89 98.3297 205.141 94.2484 204.391 90.1619C203.641 86.0767 202.89 81.986 202.067 77.9167V77.9158L201.314 74.2761C200.554 70.6363 199.774 66.9969 198.994 63.3591C198.213 59.7209 197.434 56.0842 196.674 52.448L195.922 48.8123C193.988 39.2901 192.198 29.7235 190.408 20.196V20.1941L190.199 19.0671C189.765 16.631 189.434 14.2021 189.048 11.7429H196.228Z" stroke="#CCCCCC"/>
<path d="M137.577 24.1399C139.846 23.5683 141.937 23.8474 143.84 24.9143C145.756 25.9881 147.515 27.8808 149.06 30.592L149.366 31.1448C154.641 41.0666 160.061 50.9455 165.43 60.8186V60.8196C175.017 78.3993 184.975 95.7744 193.969 113.551L193.97 113.552C196.946 119.42 198.606 125.894 199.98 132.341L200.554 135.101C201.86 141.529 202.28 148.118 202.788 154.747L203.013 157.591C204.354 174.067 197.754 188.446 186.688 200.873C175.635 213.27 163.645 225.018 151.311 236.407L148.839 238.681C137.742 248.879 125.547 258.066 113.737 267.681L113.735 267.679C104.161 275.485 94.4994 283.137 84.8981 290.879L80.7867 294.203C77.4232 296.935 74.0954 299.68 70.774 302.428L60.8014 310.681C50.7128 319.006 40.6522 327.33 30.5582 335.636L20.4508 343.935C10.4623 352.095 0.625788 360.427 -9.76111 368.089L-11.8461 369.613C-13.3122 370.672 -15.3456 371.162 -17.6361 371.494C-19.754 371.801 -22.137 371.978 -24.264 372.387C-24.3899 372.166 -24.5134 371.945 -24.6381 371.72C-24.7682 371.485 -24.902 371.247 -25.0394 371.007C-24.5258 370.289 -24.0289 369.521 -23.5404 368.817C-22.9785 368.007 -22.3949 367.241 -21.7045 366.575L-21.7054 366.574C-14.4165 359.642 -6.89653 352.851 0.311157 345.817C23.05 323.75 45.6502 301.59 68.3385 279.525C89.2834 259.166 110.434 238.926 131.335 218.475H131.336C140.996 209.008 151.138 199.669 159.532 189.283L159.533 189.284C164.959 182.574 167.899 174.129 171.311 166.36V166.359C175.97 155.727 174.783 144.32 173.381 133.668L173.38 133.667L173.24 132.679C171.799 123.13 168.055 113.741 164.906 104.467L164.264 102.55C159.134 86.8578 153.762 71.2103 148.295 55.5647C147.032 51.9469 145.6 48.375 144.168 44.8147C142.733 41.2509 141.298 37.6985 140.02 34.1047C138.875 30.8784 138.35 27.5311 137.577 24.1399Z" stroke="#CCCCCC"/>
<path d="M101.396 45.9905C104.357 45.6208 106.647 45.9754 108.607 46.9954C110.724 48.097 112.518 50.0058 114.36 52.7727C126.116 70.4257 137.878 88.1291 150.123 105.528C158.678 117.73 165.255 130.586 167.229 144.781L167.405 146.158C167.986 151.143 166.751 156.474 165.359 161.668L164.759 163.885C161.932 174.228 155.891 183.543 147.729 190.914C139.008 198.792 128.649 205.188 118.613 211.844L118.612 211.845C104.781 221.062 90.6582 229.973 76.5771 238.889H76.5762C63.8276 246.971 50.849 254.89 38.1367 262.977H38.0889L37.9658 263.055C21.7364 273.381 5.66013 283.891 -10.6104 294.213C-19.031 299.546 -27.7107 304.552 -36.248 309.81L-36.249 309.811C-41.1471 312.842 -46.0166 315.881 -50.6865 319.212L-51.6172 319.882C-55.6589 322.786 -59.7983 322.321 -65.7363 321.597C-57.1299 314.905 -49.5246 308.932 -41.8291 303.118L-41.8301 303.117C-39.5673 301.422 -37.2059 299.812 -34.8291 298.2C-32.7515 296.792 -30.6607 295.382 -28.625 293.92L-27.7559 293.29C-10.3379 280.53 7.03272 267.768 24.3076 254.831L24.3086 254.832C31.5448 249.433 38.7079 243.947 45.8682 238.463C53.0293 232.978 60.1876 227.496 67.418 222.101L67.4199 222.1C71.4517 219.069 75.6055 216.168 79.7676 213.261C83.9265 210.356 88.0932 207.445 92.1406 204.403L92.1416 204.404C100.085 198.498 107.694 192.238 115.378 186.127L115.38 186.125C119.205 183.059 123.477 180.17 126.891 176.69H126.892C133.08 170.375 137.458 163.582 139.596 154.8L139.795 153.944C143.124 138.998 138.266 126.234 132.262 113.289H132.261C123.069 93.5393 114.169 73.6616 105.119 53.8176H105.12C103.989 51.3239 102.771 48.8304 101.396 45.9905Z" stroke="#CCCCCC"/>
<path d="M350.515 11.4602V370.153H438.204V421.982H251.429V11.4602H350.515Z" stroke="#CCCCCC"/>
<path d="M649.229 11.4602L724.051 421.982H625.904L609.072 311.906L609.006 311.482H563.73L563.664 311.906L546.642 421.982H448.494L523.172 11.4602H649.229ZM586.625 131.993L585.631 131.996L571.99 254.818L571.928 255.372H601.098L601.033 254.815L586.625 131.993Z" stroke="#CCCCCC"/>
<path d="M857.812 11.4602C885.448 11.4602 909.543 17.0598 929.975 28.2395L930.945 28.7756C951.547 40.2658 961.802 58.5939 961.802 83.8489V140.957C961.802 155.271 956.978 167.467 947.329 177.564C937.669 187.672 923.146 195.701 903.713 201.609L901.896 202.161L903.749 202.574C924.233 207.146 939.549 214.358 949.737 224.171C959.911 233.97 965.009 246.395 965.009 261.487V341.249C965.009 368.261 955.256 388.457 935.836 401.837C916.354 415.26 893.098 421.982 866.045 421.982H740.42V11.4602H857.812ZM839.506 370.196H840.006C849.367 370.196 856.486 368.372 861.272 364.643C866.083 360.895 868.459 355.284 868.459 347.906V243.719C868.459 236.425 866.08 230.88 861.27 227.176C856.483 223.491 849.366 221.69 840.006 221.69H839.506V370.196ZM839.506 177.902H840.006C849.367 177.902 856.487 176.068 861.273 172.322C866.083 168.557 868.459 162.926 868.459 155.527V85.3186C868.459 78.0037 866.081 72.4469 861.271 68.7375C856.484 65.0472 849.366 63.2463 840.006 63.2463H839.506V177.902Z" stroke="#CCCCCC"/>
<path d="M1066.96 363.02V421.981H985.345V363.02H1066.96Z" stroke="#CCCCCC"/>
<path d="M1202.49 7.69995C1236.98 7.69999 1262.75 13.769 1279.89 25.8308C1297 37.87 1305.57 55.9269 1305.57 80.0886V154.249H1215.72V73.2576C1215.72 69.7796 1214.52 67.1064 1212.06 65.325C1209.63 63.5653 1206.05 62.7283 1201.39 62.7283C1196.72 62.7283 1192.99 63.566 1190.41 65.3162C1187.81 67.0871 1186.43 69.7565 1186.43 73.2576V358.802C1186.43 362.29 1187.7 364.964 1190.27 366.741C1192.8 368.495 1196.53 369.332 1201.39 369.332C1206.24 369.332 1209.83 368.495 1212.21 366.731C1214.62 364.943 1215.72 362.266 1215.72 358.802V257.708H1305.57V361.655C1305.57 380.925 1295.13 396.429 1274.04 408.125C1252.92 419.838 1229.07 425.7 1202.49 425.7C1163.97 425.7 1135.17 419.532 1116.02 407.265C1096.9 395.023 1087.35 376.675 1087.35 352.144V87.2644C1087.35 60.7067 1096.92 40.8566 1116.04 27.6218C1135.19 14.364 1163.98 7.69995 1202.49 7.69995Z" stroke="#CCCCCC"/>
</g>
<defs>
<filter id="filter0_g_1_37" x="-74.2" y="-4.86374e-05" width="2006.41" height="433.4" filterUnits="userSpaceOnUse" color-interpolation-filters="sRGB">
<feFlood flood-opacity="0" result="BackgroundImageFix"/>
<feBlend mode="normal" in="SourceGraphic" in2="BackgroundImageFix" result="shape"/>
<feTurbulence type="fractalNoise" baseFrequency="0.66666668653488159 0.66666668653488159" numOctaves="3" seed="4434" />
<feDisplacementMap in="shape" scale="14.399999618530273" xChannelSelector="R" yChannelSelector="G" result="displacedImage" width="100%" height="100%" />
<feMerge result="effect1_texture_1_37">
<feMergeNode in="displacedImage"/>
</feMerge>
</filter>
</defs>
</svg>
